<svg width="158" height="34" viewBox="0 0 158 34" fill="none" xmlns="http://www.w3.org/2000/svg">
<path d="M53.434 27.6218H36V23.3201L47.3168 9.63659H36.5735V5.33498H53.1664V9.63659L41.8113 23.3201H53.434V27.6218ZM62.1893 28.0297C60.8894 28.0297 59.7042 27.8072 58.6719 27.3993C57.6396 26.9913 56.7603 26.398 56.0721 25.6193C55.3457 24.8776 54.8104 23.9506 54.4663 22.8752C54.084 21.7998 53.8928 20.576 53.8928 19.241C53.8928 17.9061 54.084 16.7194 54.4281 15.644C54.7722 14.5686 55.3074 13.6415 55.9956 12.8628C56.6838 12.1211 57.5249 11.5278 58.5572 11.0828C59.5512 10.6749 60.6982 10.4895 61.9981 10.4895C63.451 10.4895 64.6744 10.712 65.6684 11.1941C66.7007 11.6391 67.5418 12.2695 68.1918 13.0482C68.8417 13.864 69.3005 14.754 69.6064 15.7923C69.9123 16.8307 70.027 17.9061 70.027 19.0185V20.4277H58.9395V20.6873C58.9395 21.7998 59.2454 22.6527 59.8571 23.3201C60.4688 23.9506 61.4629 24.2843 62.7628 24.2843C63.7568 24.2843 64.5979 24.0618 65.2479 23.691C65.8596 23.2831 66.4713 22.8381 67.0066 22.2818L69.4535 25.2114C68.6888 26.1014 67.6948 26.7689 66.4331 27.288C65.2097 27.7701 63.795 28.0297 62.1893 28.0297ZM62.1128 13.9753C61.1188 13.9753 60.3541 14.2719 59.7806 14.9023C59.2071 15.5328 58.9395 16.3486 58.9395 17.424V17.6465H65.0185V17.3869C65.0185 16.3486 64.7509 15.5328 64.2921 14.9023C63.8333 14.2719 63.1069 13.9753 62.1128 13.9753ZM82.2614 24.8035H82.1084C81.9937 25.2485 81.7643 25.6934 81.4967 26.0643C81.1908 26.4722 80.8468 26.8059 80.4644 27.1026C80.0439 27.3993 79.5851 27.6218 79.0498 27.7701C78.5528 27.9184 78.0175 28.0297 77.4823 28.0297C75.2648 28.0297 73.6208 27.2509 72.5121 25.7676C71.3651 24.2472 70.8298 22.0964 70.8298 19.241C70.8298 16.3857 71.3651 14.1978 72.5121 12.7145C73.6208 11.2311 75.2648 10.4895 77.4823 10.4895C78.591 10.4895 79.5851 10.7862 80.4644 11.3795C81.3055 11.9728 81.879 12.7145 82.1084 13.6786H82.2614V4H87.1551V27.6218H82.2614V24.8035ZM79.0881 24.1731C80.0056 24.1731 80.7703 23.9506 81.382 23.5056C81.9555 23.0977 82.2614 22.4672 82.2614 21.7256V16.7565C82.2614 16.0148 81.9555 15.3844 81.382 14.9765C80.7703 14.5315 80.0056 14.309 79.0881 14.309C78.1705 14.309 77.4058 14.6057 76.7941 15.2361C76.1824 15.8665 75.8765 16.7194 75.8765 17.7948V20.6873C75.8765 21.7627 76.1824 22.6156 76.7941 23.246C77.4058 23.8764 78.1705 24.1731 79.0881 24.1731ZM100.46 24.8035H100.307C100.192 25.2485 99.963 25.6934 99.6954 26.0643C99.3895 26.4722 99.0454 26.8059 98.6249 27.1026C98.2426 27.3993 97.7838 27.6218 97.2485 27.7701C96.7515 27.9184 96.2162 28.0297 95.681 28.0297C93.4635 28.0297 91.8195 27.2509 90.6725 25.7676C89.5638 24.2472 89.0285 22.0964 89.0285 19.241C89.0285 16.3857 89.5638 14.1978 90.6725 12.7145C91.8195 11.2311 93.4635 10.4895 95.681 10.4895C96.7897 10.4895 97.7838 10.7862 98.6249 11.3795C99.5042 11.9728 100.078 12.7145 100.307 13.6786H100.46V4H105.354V27.6218H100.46V24.8035ZM97.2867 24.1731C98.2043 24.1731 98.969 23.9506 99.5807 23.5056C100.154 23.0977 100.46 22.4672 100.46 21.7256V16.7565C100.46 16.0148 100.154 15.3844 99.5807 14.9765C98.969 14.5315 98.2043 14.309 97.2867 14.309C96.3692 14.309 95.6045 14.6057 94.9928 15.2361C94.3811 15.8665 94.0752 16.7194 94.0752 17.7948V20.6873C94.0752 21.7627 94.3811 22.6156 94.9928 23.246C95.6045 23.8764 96.3692 24.1731 97.2867 24.1731ZM108.068 10.8603H112.924V13.6786H113.115C113.344 12.7145 113.88 11.9728 114.759 11.3795C115.638 10.7862 116.632 10.4895 117.741 10.4895C119.92 10.4895 121.603 11.2311 122.711 12.7145C123.82 14.1978 124.394 16.3857 124.394 19.241C124.394 22.0964 123.82 24.2472 122.711 25.7676C121.603 27.2509 119.92 28.0297 117.741 28.0297C117.168 28.0297 116.632 27.9184 116.135 27.7701C115.638 27.6218 115.18 27.3993 114.759 27.1026C114.338 26.8059 113.994 26.4722 113.727 26.0643C113.421 25.6934 113.23 25.2485 113.115 24.8035H112.924V34H108.068V10.8603ZM116.135 24.1731C117.053 24.1731 117.818 23.8764 118.429 23.246C119.003 22.6156 119.309 21.7627 119.309 20.6873V17.7948C119.309 16.7194 119.003 15.8665 118.429 15.2361C117.818 14.6057 117.053 14.309 116.135 14.309C115.218 14.309 114.453 14.5315 113.841 14.9765C113.23 15.3844 112.924 16.0148 112.924 16.7565V21.7256C112.924 22.4672 113.23 23.0977 113.841 23.5056C114.453 23.9506 115.218 24.1731 116.135 24.1731ZM139.037 27.6218C138.157 27.6218 137.431 27.3622 136.857 26.843C136.246 26.2868 135.902 25.5822 135.749 24.6922H135.558C135.29 25.7676 134.678 26.5834 133.799 27.1768C132.881 27.733 131.772 28.0297 130.473 28.0297C128.752 28.0297 127.414 27.5476 126.496 26.6576C125.579 25.7676 125.12 24.618 125.12 23.1347C125.12 21.3918 125.77 20.0569 127.108 19.204C128.408 18.3511 130.243 17.9061 132.499 17.9061H135.252V16.8677C135.252 16.0519 135.022 15.4215 134.602 14.9394C134.143 14.4574 133.416 14.1978 132.384 14.1978C131.428 14.1978 130.664 14.4203 130.09 14.8282C129.517 15.2361 129.02 15.6811 128.676 16.2002L125.77 13.6786C126.458 12.6774 127.338 11.8986 128.408 11.3424C129.479 10.7491 130.931 10.4895 132.728 10.4895C135.213 10.4895 137.049 11.0087 138.272 12.047C139.495 13.0853 140.107 14.6057 140.107 16.6082V23.9506H141.751V27.6218H139.037ZM132.27 24.7293C133.111 24.7293 133.799 24.5439 134.372 24.2101C134.946 23.8764 135.252 23.3201 135.252 22.5785V20.6131H132.881C130.97 20.6131 130.014 21.2064 130.014 22.4672V22.9493C130.014 23.5426 130.205 24.0247 130.587 24.2843C131.008 24.581 131.543 24.7293 132.27 24.7293ZM153.45 10.8603H158L151.348 30.2176C150.889 31.5155 150.277 32.4796 149.474 33.0729C148.671 33.7033 147.524 34 146.033 34H143.013V30.3288H146.263L146.836 28.4747L140.795 10.8603H145.651L148.174 18.6848L149.436 23.5426H149.627L150.889 18.6848L153.45 10.8603Z" fill="#FEFEFE"/>
<path d="M6.7311 18.0569L9.68505 15.2351L9.41026 15.1306H9.38737C9.29577 15.0783 7.62416 14.4251 7.62416 14.4251C3.36498 13.1709 3.29628 5.4893 8.33402 4H23.4243C28.3705 4.52256 29.6299 9.90494 25.5997 14.007C24.409 15.1828 23.058 16.2802 22.1649 17.1163C24.4777 18.0308 27.8209 18.5272 27.569 23.3348C27.4316 25.8953 26.0806 27.5936 24.409 27.9072L9.70795 27.9333C4.21224 28.7171 1.67047 22.4203 6.7311 18.0569ZM11.9291 13.0926L18.4553 6.87409H8.35692C4.8763 10.3491 9.02099 12.8574 11.9291 13.0926ZM19.8292 19.2065C17.608 21.2445 15.1808 23.4393 13.2573 25.1376L24.2258 24.9808C25.8974 24.615 25.9432 21.7148 24.7754 21.1923C23.1495 20.4868 21.4779 19.8597 19.8292 19.2065ZM9.73085 25.007L24.4319 10.532C26.0577 8.80756 23.2869 5.6722 21.5924 7.34439L7.18908 21.0878C5.08239 23.6744 8.01344 26.5746 9.73085 25.007Z" fill="#007DE8"/>
<!-- <text x="50" y="20" fill="red" dx='2' dy='6' style='font-size:30px;'>ZeddPay</text> -->
</svg>
